<svg xmlns="http://www.w3.org/2000/svg" viewBox="0 0 100 100" width="32" height="32">
  <circle cx="50" cy="50" r="50" fill="#1a1510"/>
  <path d="
    M 58,18
    C 62,16 70,17 72,22
    C 75,28 70,34 63,36
    C 56,38 50,39 48,42
    C 44,46 44,50 46,53
    C 48,56 52,57 55,58
    C 62,60 68,63 67,70
    C 66,76 60,82 52,83
    C 44,84 36,81 34,76
    C 32,72 35,68 39,68
    C 41,68 42,70 44,71
    C 48,73 54,73 56,70
    C 58,67 55,63 50,61
    C 44,59 38,57 36,52
    C 33,46 35,40 40,36
    C 45,32 52,31 56,28
    C 60,25 60,21 58,18
    Z
  " fill="#f5c842"/>
</svg>
